<?xml version="1.0" encoding="utf-8"?>
<!-- Generator: Adobe Illustrator 21.0.2, SVG Export Plug-In . SVG Version: 6.00 Build 0)  -->
<svg version="1.1" id="Layer_1" xmlns="http://www.w3.org/2000/svg" xmlns:xlink="http://www.w3.org/1999/xlink" x="0px" y="0px"
	 viewBox="0 0 80 520" style="enable-background:new 0 0 80 520;" xml:space="preserve">
<style type="text/css">
	.st0{display:none;}
	.st1{display:inline;fill:#333333;}
	.st2{fill:none;stroke:#BFBFBF;stroke-width:2;stroke-miterlimit:10;}
	.st3{fill:#BFBFBF;}
</style>
<g id="Layer_2" class="st0">
	
		<image style="display:inline;overflow:visible;enable-background:new    ;" width="1347" height="305" xlink:href="../algorithms.png"  transform="matrix(2.4473 0 0 2.4473 -3165.5459 495.4146)">
	</image>
	<rect x="-3109" y="-21" class="st1" width="3204" height="575"/>
</g>
<g id="Layer_1_1_">
	<g>
		<g>
			<polyline class="st2" points="17.5,135 2,135 2,85 23,85 23,91.3 			"/>
			<g>
				<polygon class="st3" points="19,90.1 23,97 27,90.1 				"/>
			</g>
		</g>
	</g>
	<g>
		<path class="st3" d="M29,445v-27H2v27H29z M17.3,437.7h-2.6V429h-3v-1.7c0.8,0,1.3-0.1,1.7-0.2c0.5-0.1,0.9-0.3,1.2-0.7
			c0.2-0.2,0.4-0.5,0.5-0.9c0.1-0.2,0.1-0.4,0.1-0.5h2.1L17.3,437.7L17.3,437.7z"/>
	</g>
	<g>
		<g>
			<line class="st2" x1="60.8" y1="202.6" x2="60" y2="332"/>
			<g>
				<polygon class="st3" points="56,331 60,337.9 64,331 				"/>
			</g>
		</g>
	</g>
	<g>
		<g>
			<line class="st2" x1="32.6" y1="122" x2="60.9" y2="171.3"/>
			<g>
				<polygon class="st3" points="56.9,172.4 63.9,176.4 63.8,168.4 				"/>
			</g>
		</g>
	</g>
	<g>
		<g>
			<line class="st2" x1="59" y1="364" x2="59" y2="493"/>
			<g>
				<polygon class="st3" points="55,492 59,498.9 63,492 				"/>
			</g>
		</g>
	</g>
	<g>
		<g>
			<line class="st2" x1="15" y1="283" x2="15" y2="413.4"/>
			<g>
				<polygon class="st3" points="11,412.7 15,417.5 19,412.7 				"/>
			</g>
		</g>
	</g>
	<g>
		<g>
			<line class="st2" x1="21" y1="445" x2="21" y2="493.3"/>
			<g>
				<polygon class="st3" points="17,492.1 21,499 25,492.1 				"/>
			</g>
		</g>
	</g>
	<polygon class="st2" points="69.6,500 41,518 12.4,500 	"/>
	<g>
		<path class="st3" d="M46,338v27h27v-27H46z M63.8,358h-8.7c0-0.9,0.2-1.7,0.6-2.5c0.4-0.9,1.2-1.7,2.5-2.7
			c1.2-0.8,1.9-1.4,2.2-1.8c0.5-0.6,0.8-1.2,0.8-1.8c0-0.5-0.1-1-0.4-1.3s-0.7-0.5-1.3-0.5c-0.8,0-1.3,0.3-1.6,0.9
			c-0.2,0.3-0.3,0.9-0.3,1.6h-2.4c0-1.1,0.2-2,0.6-2.6c0.7-1.3,1.9-1.9,3.6-1.9c1.3,0,2.4,0.4,3.2,1.1c0.8,0.7,1.2,1.7,1.2,3
			c0,0.9-0.3,1.8-0.8,2.5c-0.4,0.5-1,1-1.8,1.6l-1,0.7c-0.6,0.4-1.1,0.8-1.3,1s-0.4,0.4-0.6,0.7h5.6L63.8,358L63.8,358z"/>
	</g>
	<g>
		<g>
			<line class="st2" x1="27.7" y1="281.4" x2="60.1" y2="333"/>
			<g>
				<polygon class="st3" points="60,332 60,332 60,332 				"/>
			</g>
		</g>
	</g>
	<g>
		<g>
			<line class="st2" x1="17" y1="125" x2="17" y2="254"/>
			<g>
				<polygon class="st3" points="12,250 16,256.9 20,250 				"/>
			</g>
		</g>
	</g>
	<g>
		<g>
			<line class="st2" x1="62.8" y1="44" x2="63" y2="171"/>
			<g>
				<polygon class="st3" points="59,170 63,176.9 67,170 				"/>
			</g>
		</g>
	</g>
	<g>
		<g>
			<line class="st2" x1="60.8" y1="202.6" x2="14.9" y2="412.6"/>
			<g>
				<polygon class="st3" points="11.2,410.8 13.6,418.4 19,412.5 				"/>
			</g>
		</g>
	</g>
	<g>
		<g>
			<line class="st2" x1="62.8" y1="41" x2="16.9" y2="251"/>
			<g>
				<polygon class="st3" points="13.2,249.2 15.6,256.8 21,250.9 				"/>
			</g>
		</g>
	</g>
	<g>
		<g>
			<path class="st3" d="M26.4,258.8v23h-23v-23H26.4 M28.4,256.8h-27v27h27V256.8L28.4,256.8z"/>
		</g>
		<g>
			<path class="st3" d="M12.8,272.8c0,0.5,0.1,0.9,0.2,1.3c0.3,0.6,0.9,0.9,1.7,0.9c0.5,0,0.9-0.2,1.3-0.5c0.4-0.3,0.5-0.8,0.5-1.5
				c0-0.8-0.3-1.4-1-1.7c-0.4-0.2-1-0.2-1.8-0.2v-1.8c0.8,0,1.4-0.1,1.7-0.2c0.6-0.2,0.8-0.7,0.8-1.5c0-0.5-0.1-0.9-0.4-1.2
				c-0.3-0.3-0.7-0.5-1.2-0.5c-0.6,0-1,0.2-1.3,0.6c-0.3,0.4-0.4,0.9-0.4,1.5h-2.3c0-0.6,0.1-1.2,0.3-1.8c0.2-0.5,0.5-1,1-1.4
				c0.3-0.3,0.7-0.5,1.2-0.7c0.5-0.2,1-0.2,1.7-0.2c1.2,0,2.2,0.3,2.9,0.9c0.7,0.6,1.1,1.5,1.1,2.5c0,0.8-0.2,1.4-0.7,1.9
				c-0.3,0.3-0.6,0.5-0.9,0.7c0.2,0,0.6,0.2,1,0.6c0.6,0.6,1,1.4,1,2.4c0,1.1-0.4,2-1.1,2.8c-0.7,0.8-1.9,1.2-3.3,1.2
				c-1.8,0-3.1-0.6-3.8-1.8c-0.4-0.6-0.6-1.4-0.6-2.5L12.8,272.8L12.8,272.8z"/>
		</g>
	</g>
	<g>
		<g>
			<path class="st3" d="M73,178v23H50v-23H73 M75,176H48v27h27V176L75,176z"/>
		</g>
		<g>
			<path class="st3" d="M66,192.9h-1.4v2.7h-2.5v-2.7h-5v-2.2l4.7-7.7h2.8v8H66L66,192.9L66,192.9z M62.1,191v-5.5L59,191H62.1z"/>
		</g>
	</g>
	<g>
		<g>
			<path class="st3" d="M32.4,100.5v23h-23v-23H32.4 M34.4,98.5h-27v27h27V98.5L34.4,98.5z"/>
		</g>
		<g>
			<path class="st3" d="M19.1,114.3c0.1,0.5,0.3,1,0.6,1.3s0.7,0.4,1.2,0.4c0.6,0,1.1-0.2,1.4-0.7c0.3-0.4,0.5-1,0.5-1.6
				c0-0.7-0.2-1.2-0.5-1.6c-0.3-0.4-0.8-0.7-1.4-0.7c-0.3,0-0.6,0-0.8,0.1c-0.4,0.1-0.7,0.4-0.9,0.8l-2.2-0.1l0.9-7h7v2.1h-5.2
				l-0.5,2.8c0.4-0.3,0.7-0.4,0.9-0.5c0.4-0.1,0.8-0.2,1.3-0.2c1.1,0,2,0.4,2.8,1.1s1.2,1.7,1.2,3.1c0,1.2-0.4,2.2-1.1,3.2
				c-0.8,0.9-1.9,1.4-3.4,1.4c-1.2,0-2.2-0.3-3-1c-0.8-0.7-1.2-1.6-1.3-2.8L19.1,114.3L19.1,114.3z"/>
		</g>
	</g>
	<g>
		<g>
			<path class="st3" d="M73.3,18v23h-23V18H73.3 M75.3,16h-27v27h27V16L75.3,16z"/>
		</g>
		<g>
			<path class="st3" d="M63.5,26c0-0.2-0.1-0.4-0.2-0.7c-0.3-0.4-0.7-0.6-1.2-0.6c-0.8,0-1.4,0.5-1.7,1.4c-0.2,0.5-0.3,1.2-0.4,2.2
				c0.3-0.4,0.7-0.6,1.1-0.8s0.9-0.3,1.4-0.3c1.1,0,2.1,0.4,2.8,1.2c0.7,0.8,1.1,1.7,1.1,2.9c0,1.2-0.4,2.2-1.1,3.1
				s-1.8,1.4-3.3,1.4c-1.6,0-2.8-0.7-3.6-2c-0.6-1-0.9-2.4-0.9-4.1c0-1,0-1.8,0.1-2.4c0.1-1.1,0.4-2,0.9-2.7
				c0.4-0.6,0.8-1.1,1.4-1.5s1.3-0.6,2.1-0.6c1.2,0,2.1,0.3,2.8,0.9s1.1,1.4,1.2,2.4L63.5,26L63.5,26z M60.5,33.1
				c0.4,0.4,0.8,0.7,1.4,0.7c0.6,0,1-0.2,1.3-0.6s0.5-1,0.5-1.6c0-0.7-0.2-1.3-0.5-1.7s-0.8-0.6-1.3-0.6c-0.4,0-0.8,0.1-1.1,0.4
				c-0.5,0.4-0.7,1-0.7,1.8C59.9,32.1,60.1,32.7,60.5,33.1z"/>
		</g>
	</g>
</g>
</svg>
