<?xml version="1.0" encoding="utf-8"?>
<!-- Generator: Adobe Illustrator 21.0.2, SVG Export Plug-In . SVG Version: 6.00 Build 0)  -->
<svg version="1.1" id="Layer_1" xmlns="http://www.w3.org/2000/svg" xmlns:xlink="http://www.w3.org/1999/xlink" x="0px" y="0px"
	 viewBox="0 0 80 520" style="enable-background:new 0 0 80 520;" xml:space="preserve">
<style type="text/css">
	.st0{display:none;}
	.st1{display:inline;fill:#333333;}
	.st2{fill:#BFBFBF;}
	.st3{fill:none;stroke:#BFBFBF;stroke-width:2;stroke-miterlimit:10;}
</style>
<g id="Layer_2" class="st0">
	
		<image style="display:inline;overflow:visible;enable-background:new    ;" width="1347" height="305" xlink:href="../algorithms.png"  transform="matrix(2.4473 0 0 2.4473 -465.5459 495.4146)">
	</image>
	<rect x="-409" y="-21" class="st1" width="3204" height="575"/>
</g>
<g id="Layer_1_1_">
	<g>
		<g>
			<path class="st2" d="M51.5,180v23h-23v-23H51.5 M53.5,178h-27v27h27V178L53.5,178z"/>
		</g>
		<g>
			<path class="st2" d="M44.5,194.9h-1.4v2.7h-2.5v-2.7h-5v-2.2l4.7-7.7h2.8v8h1.4L44.5,194.9L44.5,194.9z M40.6,193v-5.5l-3.2,5.5
				H40.6z"/>
		</g>
	</g>
	<g>
		<path class="st2" d="M30,340v23H7v-23H30 M32,338H5v27h27V338L32,338z"/>
	</g>
	<g>
		<path class="st2" d="M72,20v23H49V20H72 M74,18H47v27h27V18L74,18z"/>
	</g>
	<g>
		<path class="st2" d="M14.8,355.3c0.4-0.9,1.2-1.7,2.5-2.7c1.2-0.8,1.9-1.4,2.2-1.8c0.5-0.6,0.8-1.2,0.8-1.8c0-0.5-0.1-1-0.4-1.3
			s-0.7-0.5-1.3-0.5c-0.8,0-1.3,0.3-1.6,0.9c-0.2,0.3-0.3,0.9-0.3,1.6h-2.4c0-1.1,0.2-2,0.6-2.6c0.7-1.3,1.9-1.9,3.6-1.9
			c1.3,0,2.4,0.4,3.2,1.1c0.8,0.7,1.2,1.7,1.2,3c0,0.9-0.3,1.8-0.8,2.5c-0.4,0.5-1,1-1.8,1.6l-1,0.7c-0.6,0.4-1.1,0.8-1.3,1
			s-0.4,0.4-0.6,0.7h5.6v2.2h-8.7C14.2,356.9,14.4,356.1,14.8,355.3z"/>
	</g>
	<g>
		<path class="st2" d="M62.2,28c0-0.2-0.1-0.4-0.2-0.7c-0.3-0.4-0.7-0.6-1.2-0.6c-0.8,0-1.4,0.5-1.7,1.4c-0.2,0.5-0.3,1.2-0.4,2.2
			c0.3-0.4,0.7-0.6,1.1-0.8s0.9-0.3,1.4-0.3c1.1,0,2.1,0.4,2.8,1.2s1.1,1.7,1.1,2.9c0,1.2-0.4,2.2-1.1,3.1s-1.8,1.4-3.3,1.4
			c-1.6,0-2.8-0.7-3.6-2c-0.6-1-0.9-2.4-0.9-4.1c0-1,0-1.8,0.1-2.4c0.1-1.1,0.4-2,0.9-2.7c0.4-0.6,0.8-1.1,1.4-1.5s1.3-0.6,2.1-0.6
			c1.2,0,2.1,0.3,2.8,0.9c0.7,0.6,1.1,1.4,1.2,2.4L62.2,28L62.2,28z M59.2,35.2c0.4,0.4,0.8,0.7,1.4,0.7c0.6,0,1-0.2,1.3-0.6
			s0.5-1,0.5-1.6c0-0.7-0.2-1.3-0.5-1.7s-0.8-0.6-1.3-0.6c-0.4,0-0.8,0.1-1.1,0.4c-0.5,0.4-0.7,1-0.7,1.8
			C58.7,34.2,58.8,34.7,59.2,35.2z"/>
	</g>
	<g>
		<path class="st2" d="M32,445v-27H5v27H32z M20.3,437.7h-2.6V429h-3v-1.7c0.8,0,1.3-0.1,1.7-0.2c0.5-0.1,0.9-0.3,1.2-0.7
			c0.2-0.2,0.4-0.5,0.5-0.9c0.1-0.2,0.1-0.4,0.1-0.5h2.1L20.3,437.7L20.3,437.7z"/>
	</g>
	<g>
		<path class="st2" d="M53.5,285v-27h-27v27H53.5z M43.4,276.6c-0.7,0.8-1.9,1.2-3.3,1.2c-1.8,0-3.1-0.6-3.8-1.8
			c-0.4-0.6-0.6-1.4-0.6-2.5h2.5c0,0.5,0.1,0.9,0.2,1.3c0.3,0.6,0.9,0.9,1.7,0.9c0.5,0,0.9-0.2,1.3-0.5c0.4-0.3,0.5-0.8,0.5-1.5
			c0-0.8-0.3-1.4-1-1.7c-0.4-0.2-1-0.2-1.8-0.2v-1.8c0.8,0,1.4-0.1,1.7-0.2c0.6-0.2,0.8-0.7,0.8-1.5c0-0.5-0.1-0.9-0.4-1.2
			c-0.3-0.3-0.7-0.5-1.2-0.5c-0.6,0-1,0.2-1.3,0.6c-0.3,0.4-0.4,0.9-0.4,1.5H36c0-0.6,0.1-1.2,0.3-1.8c0.2-0.5,0.5-1,1-1.4
			c0.3-0.3,0.7-0.5,1.2-0.7s1-0.2,1.7-0.2c1.2,0,2.2,0.3,2.9,0.9c0.7,0.6,1.1,1.5,1.1,2.5c0,0.8-0.2,1.4-0.7,1.9
			c-0.3,0.3-0.6,0.5-0.9,0.7c0.2,0,0.6,0.2,1,0.6c0.6,0.6,1,1.4,1,2.4C44.5,274.8,44.2,275.8,43.4,276.6z"/>
	</g>
	<g>
		<g>
			<line class="st3" x1="40" y1="204" x2="40" y2="252"/>
			<g>
				<polygon class="st2" points="36,251 40,257.9 44,251 				"/>
			</g>
		</g>
	</g>
	<g>
		<g>
			<line class="st3" x1="61" y1="123" x2="61" y2="493"/>
			<g>
				<polygon class="st2" points="57,492 61,498.9 65,492 				"/>
			</g>
		</g>
	</g>
	<g>
		<g>
			<line class="st3" x1="61" y1="45" x2="61" y2="92"/>
			<g>
				<polygon class="st2" points="57,91 61,97.9 65,91 				"/>
			</g>
		</g>
	</g>
	<g>
		<g>
			<line class="st3" x1="21" y1="364" x2="21" y2="412"/>
			<g>
				<polygon class="st2" points="17,411 21,417.9 25,411 				"/>
			</g>
		</g>
	</g>
	<g>
		<g>
			<line class="st3" x1="19" y1="445" x2="19" y2="493"/>
			<g>
				<polygon class="st2" points="15,492 19,498.9 23,492 				"/>
			</g>
		</g>
	</g>
	<g>
		<g>
			<line class="st3" x1="40" y1="285" x2="40" y2="493"/>
			<g>
				<polygon class="st2" points="36,492 40,498.9 44,492 				"/>
			</g>
		</g>
	</g>
	<g>
		<g>
			<polyline class="st3" points="60,56 40,56 40,6 60,6 60,12 			"/>
			<g>
				<polygon class="st2" points="56,11 60,17.9 64,11 				"/>
			</g>
		</g>
	</g>
	<polygon class="st3" points="68.6,500 40,518 11.4,500 	"/>
	<g>
		<path class="st2" d="M47,97.4v27h27v-27H47z M63.7,116.4c-0.8,0.9-1.9,1.4-3.4,1.4c-1.2,0-2.2-0.3-3-1c-0.8-0.7-1.2-1.6-1.3-2.8
			h2.5c0.1,0.5,0.3,1,0.6,1.3c0.3,0.3,0.7,0.4,1.2,0.4c0.6,0,1.1-0.2,1.4-0.7c0.3-0.4,0.5-1,0.5-1.6c0-0.7-0.2-1.2-0.5-1.6
			c-0.3-0.4-0.8-0.7-1.4-0.7c-0.3,0-0.6,0-0.8,0.1c-0.4,0.1-0.7,0.4-0.9,0.8l-2.2-0.1l0.9-7h7v2.1h-5.2l-0.5,2.8
			c0.4-0.3,0.7-0.4,0.9-0.5c0.4-0.1,0.8-0.2,1.3-0.2c1.1,0,2,0.4,2.8,1.1c0.8,0.7,1.2,1.7,1.2,3.1C64.8,114.4,64.4,115.4,63.7,116.4
			z"/>
	</g>
	<g>
		<g>
			<polyline class="st3" points="40,216.3 20,216.3 20,166.3 40,166.3 40,172.3 			"/>
			<g>
				<polygon class="st2" points="36,171.3 40,178.2 44,171.3 				"/>
			</g>
		</g>
	</g>
	<g>
		<g>
			<polyline class="st3" points="22,376.4 2,376.4 2,326.4 22,326.4 22,332.4 			"/>
			<g>
				<polygon class="st2" points="18,331.4 22,338.3 26,331.4 				"/>
			</g>
		</g>
	</g>
</g>
</svg>
